<svg width="82" height="62" viewBox="0 0 82 62" fill="none" xmlns="http://www.w3.org/2000/svg">
<path fill-rule="evenodd" clip-rule="evenodd" d="M60.9303 55.9325C55.0977 58.516 48.2819 60 41 60C19.4609 60 2 47.0163 2 31C2 14.9837 19.4609 2 41 2C62.5391 2 80 14.9837 80 31C80 37.3682 77.2396 43.257 72.5599 48.0408C72.3275 48.2784 72.0904 48.5132 71.8486 48.7453C72.0999 48.9766 72.3446 49.2035 72.5827 49.4263C90.0101 65.7264 72.44 59.1906 63.4894 55.8218C63.4168 55.7944 63.3446 55.7673 63.2731 55.7404C62.9015 55.6005 62.5459 55.4666 62.2095 55.3407C61.7886 55.5439 61.3621 55.7412 60.9303 55.9325ZM62.2562 56.4263C56.0881 59.3295 48.7966 61 41 61C30.037 61 20.0727 57.6971 12.8261 52.3086C5.57954 46.9201 1 39.3972 1 31C1 22.6028 5.57954 15.0799 12.8261 9.69144C20.0727 4.30294 30.037 1 41 1C51.963 1 61.9273 4.30294 69.1739 9.69144C76.4205 15.0799 81 22.6028 81 31C81 37.6689 78.1116 43.7863 73.2927 48.7211C73.8897 49.2798 74.4464 49.8124 74.9644 50.3198C77.611 52.9123 79.2978 54.895 80.1859 56.3882C80.6268 57.1295 80.9222 57.8335 80.9867 58.4857C81.0564 59.1915 80.8509 59.8597 80.2965 60.3349C79.8029 60.7581 79.1554 60.9185 78.556 60.9741C77.9366 61.0316 77.2289 60.9891 76.4846 60.8872C73.538 60.484 69.3175 59.0418 65.7826 57.7441C64.7838 57.3774 63.7938 57.0048 62.9027 56.6695C62.6806 56.5859 62.4646 56.5046 62.2562 56.4263Z" fill="white" stroke="white"/>
</svg>
